<svg t="1742467843839" class="icon" viewBox="0 0 1024 1024" version="1.1" xmlns="http://www.w3.org/2000/svg" p-id="19445" width="200" height="200"><path d="M96 480c4.64 0 9.088 0.992 13.056 2.784a31.744 31.744 0 0 1 10.848 7.104l90.496 90.528a32 32 0 1 1-45.248 45.248l-27.424-27.392C176.864 768.832 329.6 896 512 896a32 32 0 0 1 0 64C264.576 960 64 759.424 64 512a32 32 0 0 1 32-32z m194.304-51.648L480 537.888v211.616l-173.696-100.256a32 32 0 0 1-16-27.712v-193.184z m443.392 0v193.184a32 32 0 0 1-16 27.712L544 749.504v-211.616l189.696-109.504zM512 64c247.424 0 448 200.576 448 448a32 32 0 0 1-58.4 18.112l-90.944-90.944a32 32 0 0 1 45.248-45.28l29.92 29.888C845.952 254.208 693.728 128 512 128a32 32 0 0 1 0-64z m16 201.248l180.128 104-196.16 113.216-196.16-113.28L496 265.28a32 32 0 0 1 32 0z" fill="#000000" p-id="19446"></path></svg>